<svg width="346" height="89" viewBox="0 0 346 89" fill="none" xmlns="http://www.w3.org/2000/svg">
<path d="M130.878 59.2979C132.498 58.6561 133.764 57.7385 134.665 56.5506C135.565 55.3627 136.015 53.9159 136.015 52.2101C136.015 50.341 135.452 48.8773 134.327 47.8189C133.202 46.7549 131.558 46.0343 129.409 45.6458L124.395 44.7282C123.557 44.5368 122.938 44.2441 122.538 43.8612C122.133 43.4784 121.936 42.9943 121.936 42.4144C121.936 41.6431 122.274 41.007 122.949 40.5116C123.624 40.0161 124.733 39.7628 126.28 39.7628C127.467 39.7628 128.717 39.988 130.017 40.4384C131.322 40.8887 132.47 41.4855 133.466 42.223L135.441 37.5447C134.282 36.6102 132.886 35.9233 131.243 35.473C129.606 35.0226 127.867 34.7974 126.033 34.7974C123.877 34.7974 121.998 35.1352 120.394 35.8108C118.785 36.4863 117.558 37.4265 116.703 38.6312C115.847 39.836 115.425 41.2322 115.425 42.8085C115.425 44.61 115.971 46.0737 117.063 47.1996C118.154 48.3256 119.747 49.0969 121.835 49.5191L126.803 50.4367C127.704 50.5944 128.373 50.8533 128.807 51.208C129.24 51.5627 129.46 52.0581 129.46 52.7055C129.46 53.4768 129.122 54.0904 128.447 54.5408C127.771 54.9912 126.725 55.2163 125.312 55.2163C123.799 55.2163 122.285 54.9912 120.754 54.5408C119.229 54.0904 117.839 53.4824 116.584 52.7055L114.705 57.5302C115.96 58.3971 117.485 59.0727 119.286 59.5569C121.086 60.041 123.078 60.2831 125.267 60.2831C127.456 60.2831 129.263 59.9622 130.883 59.3148M107.857 59.54C109.449 59.0558 110.856 58.369 112.077 57.4682L110.051 52.6436C108.993 53.3867 107.874 53.9215 106.697 54.2593C105.527 54.5971 104.278 54.766 102.961 54.766C100.744 54.766 99.0444 54.1861 97.874 53.032C96.7035 51.8723 96.1127 50.1046 96.1127 47.7232V46.9519C96.1127 44.6044 96.5741 42.8028 97.4857 41.5474C98.403 40.292 99.7141 39.6671 101.414 39.6671C102.955 39.6671 104.137 40.1907 104.959 41.2322C105.78 42.2793 106.185 43.8106 106.185 45.8373L107.007 45.1617H95.1898V48.7816H112.308V47.0927C112.308 44.6494 111.897 42.5045 111.081 40.6523C110.259 38.8058 109.038 37.3646 107.418 36.3343C105.791 35.3041 103.777 34.7918 101.363 34.7918C98.9488 34.7918 96.7879 35.3322 94.9704 36.4075C93.1528 37.4828 91.7403 38.9746 90.7274 40.8719C89.7145 42.7691 89.2081 44.9872 89.2081 47.5262C89.2081 51.4501 90.4011 54.552 92.7757 56.8377C95.1561 59.1234 98.4649 60.2662 102.713 60.2662C104.548 60.2662 106.259 60.0241 107.845 59.54M69.0852 59.7314V46.0287C69.0852 44.3229 69.5691 42.9661 70.5314 41.9528C71.4993 40.9394 72.7823 40.4327 74.3917 40.4327C75.6747 40.4327 76.6425 40.8043 77.284 41.5418C77.9255 42.2849 78.2463 43.5347 78.2463 45.3081V59.7314H85.5279V44.9703C85.5279 41.4968 84.8132 38.9296 83.3839 37.2745C81.9546 35.6193 79.805 34.7918 76.9464 34.7918C74.9825 34.7918 73.2662 35.2253 71.7863 36.0922C70.3063 36.9592 69.164 38.1977 68.3649 39.8078H68.9445L68.4156 35.2703H61.4266C61.556 36.3343 61.6517 37.404 61.7136 38.4792C61.7811 39.5601 61.8092 40.6073 61.8092 41.6375V59.7314H69.0908H69.0852ZM53.4134 59.54C55.0059 59.0558 56.4127 58.369 57.6338 57.4682L55.608 52.6436C54.5501 53.3867 53.4303 53.9215 52.2542 54.2593C51.0781 54.5971 49.8345 54.766 48.5178 54.766C46.3007 54.766 44.6012 54.1861 43.4308 53.032C42.2603 51.8723 41.6695 50.1046 41.6695 47.7232V46.9519C41.6695 44.6044 42.1309 42.8028 43.0425 41.5474C43.9597 40.292 45.2709 39.6671 46.9703 39.6671C48.5121 39.6671 49.6939 40.1907 50.5154 41.2322C51.337 42.2793 51.7422 43.8106 51.7422 45.8373L52.5637 45.1617H40.7466V48.7816H57.8646V47.0927C57.8646 44.6494 57.4538 42.5045 56.6378 40.6523C55.8163 38.8058 54.5951 37.3646 52.9689 36.3343C51.3483 35.3041 49.3281 34.7918 46.914 34.7918C44.4999 34.7918 42.3391 35.3322 40.5271 36.4075C38.7095 37.4828 37.2971 38.9746 36.2842 40.8719C35.2713 42.7691 34.7649 44.9872 34.7649 47.5262C34.7649 51.4501 35.9522 54.552 38.3325 56.8377C40.7128 59.1234 44.0216 60.2662 48.2645 60.2662C50.099 60.2662 51.8097 60.0241 53.4022 59.54M24.5796 59.5625C26.8136 59.0952 28.7832 58.4478 30.4882 57.609V40.9169H16.7916V46.2707H24.2645V55.4359L25.615 52.5422C24.3939 52.9926 23.156 53.3304 21.9011 53.5556C20.6462 53.7808 19.4251 53.8934 18.2378 53.8934C14.6701 53.8934 12.0478 52.9588 10.3766 51.0954C8.70529 49.232 7.86683 46.4959 7.86683 42.8929C7.86683 39.2899 8.75593 36.4863 10.5454 34.5722C12.3292 32.6581 14.9909 31.7011 18.5248 31.7011C19.7796 31.7011 20.8882 31.7911 21.8504 31.9657C22.8183 32.1458 23.7468 32.4498 24.6472 32.8833C25.5475 33.3168 26.5098 33.9023 27.5395 34.6454L29.948 28.8074C28.5299 27.6477 26.8868 26.7582 25.0073 26.1277C23.1278 25.4971 20.9445 25.1875 18.4741 25.1875C14.6139 25.1875 11.3051 25.9137 8.53647 27.3606C5.76789 28.8074 3.65768 30.851 2.19461 33.4857C0.731537 36.126 0 39.2449 0 42.8479C0 46.4509 0.675265 49.4178 2.02579 52.0412C3.37632 54.6646 5.37961 56.6913 8.03002 58.1213C10.6804 59.5512 13.9555 60.2718 17.8439 60.2718C20.0948 60.2718 22.3344 60.0354 24.574 59.5737" fill="rgb(50, 68, 155)"/>
<path d="M329.558 59.7309V45.9325C329.558 44.2605 330.042 42.9263 331.004 41.9298C331.966 40.9333 333.255 40.4323 334.864 40.4323C336.181 40.4323 337.154 40.8039 337.779 41.5414C338.409 42.2788 338.719 43.5005 338.719 45.2063V59.7309H346V44.8685C346 41.4569 345.291 38.9235 343.879 37.2684C342.461 35.6133 340.322 34.7857 337.464 34.7857C335.506 34.7857 333.767 35.2192 332.253 36.0862C330.739 36.9531 329.603 38.2086 328.832 39.8524H329.552V24.2188H322.27V59.7309H329.558ZM316.773 60.0969C317.448 59.9843 318.089 59.7985 318.703 59.5395V53.8929C318.253 54.0562 317.825 54.1744 317.425 54.2532C317.02 54.332 316.514 54.3771 315.906 54.3771C314.91 54.3771 314.088 54.0843 313.447 53.5101C312.805 52.9302 312.479 51.8719 312.479 50.3237V40.7194H318.748V35.2699H312.479V27.5009L305.197 29.2855V35.2699H300.566V40.7194H305.197V50.7065C305.197 53.8929 306.002 56.2799 307.606 57.8731C309.215 59.4663 311.612 60.2601 314.792 60.2601C315.433 60.2601 316.092 60.2038 316.767 60.0912M298.045 24.2244H290.764V59.7366H298.045V24.2244ZM268.784 52.9753C267.771 51.7874 267.264 49.9521 267.264 47.4751C267.264 44.998 267.777 43.1796 268.806 42.0255C269.836 40.8658 271.187 40.2859 272.858 40.2859C274.529 40.2859 275.88 40.8658 276.909 42.0255C277.939 43.1852 278.451 44.998 278.451 47.4751C278.451 49.9521 277.934 51.7874 276.909 52.9753C275.88 54.1688 274.529 54.7599 272.858 54.7599C271.187 54.7599 269.797 54.1631 268.784 52.9753ZM275.852 58.8639C277.393 57.9294 278.423 56.6909 278.935 55.1483H278.356L278.401 59.7309H285.637V41.6371C285.637 40.6068 285.677 39.5541 285.761 38.4788C285.84 37.4035 285.93 36.3339 286.026 35.2699H279.031L278.451 40.0438H278.98C278.496 38.4338 277.478 37.1558 275.919 36.21C274.36 35.2642 272.599 34.7857 270.641 34.7857C268.519 34.7857 266.657 35.2924 265.047 36.3057C263.438 37.3191 262.183 38.7715 261.283 40.6744C260.382 42.5716 259.932 44.8404 259.932 47.4751C259.932 50.1098 260.382 52.4292 261.283 54.3264C262.183 56.2236 263.438 57.6873 265.047 58.7176C266.657 59.7478 268.519 60.2601 270.641 60.2601C272.571 60.2601 274.304 59.7929 275.852 58.8583M252.701 59.5395C254.294 59.0554 255.701 58.3685 256.922 57.4678L254.896 52.6431C253.832 53.3862 252.718 53.9211 251.542 54.2589C250.366 54.5966 249.122 54.7655 247.806 54.7655C245.588 54.7655 243.889 54.1857 242.719 53.0316C241.542 51.8719 240.957 50.1041 240.957 47.7228V46.9515C240.957 44.6039 241.413 42.8024 242.33 41.547C243.248 40.2916 244.559 39.6667 246.258 39.6667C247.8 39.6667 248.982 40.1902 249.803 41.2317C250.625 42.2788 251.036 43.8158 251.036 45.8368L251.857 45.1613H240.04V48.7812H257.158V47.0922C257.158 44.6489 256.747 42.504 255.926 40.6519C255.104 38.8053 253.883 37.3641 252.262 36.3339C250.642 35.3036 248.621 34.7913 246.207 34.7913C243.793 34.7913 241.633 35.3318 239.815 36.4071C237.997 37.4823 236.585 38.9742 235.572 40.8714C234.559 42.7686 234.053 44.9867 234.053 47.5257C234.053 51.4496 235.24 54.5516 237.62 56.8373C240.001 59.1229 243.315 60.2657 247.558 60.2657C249.392 60.2657 251.103 60.0237 252.696 59.5395M206.26 59.7309V45.5947H221.836V59.7309H229.405V25.7163H221.836V39.3683H206.26V25.7163H198.736V59.7309H206.26Z" fill="#45C086"/>
<path d="M163.222 58.5771C160.493 60.0633 157.831 61.6847 155.237 63.4299C150.139 59.0443 144.917 52.3675 144.917 44.5929C144.917 35.3264 150.983 27.0507 162.468 20.6554C169.21 16.8947 175.9 12.5542 178.483 7.9604C179.451 6.23771 180.188 3.53545 180.284 0.743121L189.051 0C188.533 4.92599 187.785 8.40515 185.697 11.9575C181.331 19.3831 174.319 23.8587 166.739 28.3287C156.278 34.4988 153.69 41.232 153.69 44.5985C153.69 50.1494 158.76 55.4751 163.222 58.5827" fill="rgb(50, 68, 155)"/>
<path d="M169.322 30.2993C174.038 33.2042 178.343 37.8881 178.343 44.002C178.343 47.3685 176.649 53.944 165.293 60.2662C157.606 64.5504 150.291 69.3019 145.772 76.6374C143.24 80.7471 142.385 85.8194 142.734 89.0002L151.608 88.4203C151.608 88.4203 151.276 84.3613 153.515 80.7527C156.796 75.4664 162.817 71.7001 169.553 67.9395C181.032 61.5385 187.104 53.2685 187.104 44.002C187.104 35.5856 182.687 29.9277 177.189 25.5703C174.792 27.2029 172.147 28.7736 169.317 30.3049L169.322 30.2993Z" fill="#45C086"/>
<path d="M153.173 0.962849C153.257 4.51519 153.808 7.78605 157.438 12.1153C158.67 13.5846 159.908 14.7106 163.217 16.7485C160.308 18.1222 157.607 19.721 155.097 21.5282C155.097 21.5282 152.509 19.5521 151.102 18.1729C145.992 13.1568 143.606 5.03876 143.73 0.124023C143.73 0.124023 152.216 0.895293 153.173 0.968479V0.962849Z" fill="#45C086"/>
<path d="M189.412 88.8424C189.39 81.9291 185.946 73.3889 176.717 66.8472C176.717 66.8472 174.41 68.6937 168.535 71.8182C173.369 75.6802 179.767 79.1087 179.941 88.4821C181.962 88.6003 189.406 88.8368 189.406 88.8368H189.412V88.8424Z" fill="rgb(50, 68, 155)"/>
</svg>
